<?xml version="1.0" standalone="no"?>
<!DOCTYPE svg PUBLIC "-//W3C//DTD SVG 20010904//EN"
 "http://www.w3.org/TR/2001/REC-SVG-20010904/DTD/svg10.dtd">
<svg version="1.0" xmlns="http://www.w3.org/2000/svg"
 width="700.000000pt" height="700.000000pt" viewBox="0 0 700.000000 700.000000"
 preserveAspectRatio="xMidYMid meet">
<metadata>
Created by potrace 1.14, written by Peter Selinger 2001-2017
</metadata>
<g transform="translate(0.000000,700.000000) scale(0.100000,-0.100000)"
fill="#000000" stroke="none">
<path d="M340 3500 l0 -3160 3160 0 3160 0 0 3160 0 3160 -3160 0 -3160 0 0
-3160z m950 2405 c223 0 527 2 675 5 247 5 273 3 298 -13 50 -32 28 -86 -44
-108 -19 -5 -97 -14 -174 -20 -254 -18 -343 -54 -329 -131 39 -203 227 -798
689 -2183 430 -1286 450 -1343 459 -1319 4 11 106 289 226 619 120 330 257
702 304 827 l85 228 -314 889 c-172 489 -325 911 -338 937 -53 104 -103 129
-298 149 -152 15 -189 29 -189 69 0 12 9 31 21 42 25 22 -34 22 964 4 960 -17
1314 -16 1516 2 178 17 257 12 290 -18 24 -22 24 -49 1 -72 -16 -16 -42 -20
-188 -25 -191 -7 -300 -25 -381 -62 -64 -29 -72 -37 -117 -125 -45 -87 -59
-122 -257 -639 -198 -517 -259 -682 -259 -705 0 -19 106 -313 330 -916 146
-392 321 -877 397 -1097 15 -46 30 -83 33 -83 9 0 880 2782 980 3130 101 352
105 383 52 433 -34 33 -88 44 -235 51 -186 9 -247 30 -247 82 0 35 38 55 106
55 234 3 1076 -14 1105 -22 41 -10 54 -31 39 -59 -14 -27 -60 -38 -192 -50
-70 -6 -139 -18 -172 -30 -61 -23 -126 -80 -155 -137 -37 -74 -134 -361 -258
-768 -188 -618 -302 -981 -436 -1390 -332 -1018 -468 -1450 -635 -2011 -50
-166 -98 -316 -107 -333 -21 -41 -51 -38 -81 7 -13 18 -71 178 -130 355 -149
449 -271 796 -428 1215 -74 197 -171 462 -216 588 -44 126 -86 242 -92 257
-10 27 -16 15 -95 -195 -190 -505 -444 -1212 -670 -1863 -70 -203 -133 -369
-144 -380 -42 -43 -70 6 -187 335 -159 445 -490 1414 -997 2915 -140 413 -288
851 -330 975 -42 124 -94 262 -116 307 -55 115 -73 124 -294 143 -190 16 -269
51 -250 110 11 35 41 40 215 32 91 -4 347 -7 570 -7z"/>
<path d="M3694 5760 c-103 -9 -195 -32 -214 -55 -8 -9 -10 -29 -7 -49 7 -41
347 -1137 357 -1149 10 -12 156 367 310 803 32 91 70 195 84 233 14 37 26 82
26 100 0 70 -73 102 -265 117 -133 11 -159 11 -291 0z"/>
</g>
</svg>
